<svg xmlns="http://www.w3.org/2000/svg" viewBox="0 0 274.09 305.3"><g data-name="Layer 2"><g data-name="Layer 1"><path d="M29.68 291.56h-.14L19.4 256.17H5.01v1.65h5.4v44.74h-5.4v1.66h12.95v-1.66h-5.4v-43.87h.15l13.45 45.53h1.87l13.95-45.53h.15v43.87h-5.54v1.66h17.98v-1.66H49.1v-44.74h5.47v-1.65H40.26l-10.58 35.39zM81.83 255.09c-12.37 0-20.64 12.3-20.64 25s8.27 25.18 20.64 25.18 20.65-12.45 20.65-25.18-8.27-25-20.65-25zm0 48.55c-9.92 0-12.44-8.63-12.44-23.45s2.52-23.45 12.44-23.45 12.45 8.56 12.45 23.45-2.52 23.45-12.45 23.45zM128.09 256.17h-19.28v1.65h5.54v44.74h-5.54v1.66h19.13c3.74 0 10.5-.51 15.11-5.25a27.25 27.25 0 0 0 7.48-19.21c0-14.38-8.85-23.59-22.44-23.59zm12.8 38.83c-1.51 3.17-4.17 7.48-12.52 7.55h-7.05v-44.73h5.4c14.89 0 15.89 10.43 15.89 20.65 0 6.9-.28 13.23-1.72 16.53zM178 302.56h-8.7v-22.22c7.12.07 10.14 1 10.58 8.7h1.58v-18.2h-1.58c-1 7.63-3.31 7.7-10.58 7.7v-20.72h9.35c6.55 0 11 1.51 12.23 10.07h1.58v-11.72H156v1.65h6.33v44.74H156v1.66h37.48l.94-13.45h-1.88c-1.88 10.64-5.04 11.79-14.54 11.79zM226.13 302.56h-12.88v-44.74h6.62v-1.65h-19.49v1.65h5.89v44.74h-5.89v1.66h35.89l.79-13.45h-1.37c-.86 4.6-3.69 11.79-9.56 11.79zM244 265.52c0-5.4 5.32-8.78 10.21-8.78 6.4 0 10.65 4.68 12.23 10.65h1.44v-11.22h-1l-2.73 2.08c-1.44-1.07-6.12-3.16-9.42-3.16-5.47 0-9 2.3-11.15 5.11a13.13 13.13 0 0 0 2.87 19.2c1.08.72 12.23 4.39 14.89 5.4 5.54 2.23 6.55 4.17 6.55 8.41 0 6.33-5.9 10.43-12.09 10.43-7 0-11.94-5-13.88-11.58h-1.36v12.37h1l3.1-3.16c2.95 3 7 4 11 4 9.42 0 15.61-6.12 15.61-16 .03-19.51-27.27-11.81-27.27-23.75zM274.09 70.5L203.53 0H70.5L0 70.5l137 137zm-198-57h121.85l57 57L137 188.43 19.12 70.5z"/><path d="M158.61 149.46h-15.17V83.92h15.17v-4.3h-15.17V58.46c0-18.73 5.81-29.59 14.8-29.59 1.31 0 4.49.18 4.49 1.12 0 2.44-1.5 2.62-1.5 4.68 0 5.06 2.63 8.62 7.68 8.62 3.19 0 6.93-2.44 6.93-6.18 0-8.8-8.43-12.17-15.73-12.17-18 0-31.27 13.48-31.27 45.5v9.18h-14.42v4.3h14.42v65.54h-14.42v4.32h44.19z"/><circle cx="183.74" cy="81.49" r="6.77"/></g></g></svg>