<svg id="Layer_1" data-name="Layer 1" xmlns="http://www.w3.org/2000/svg" viewBox="0 0 100 120"><defs><style>.cls-1{font-size:21.47px;font-family:Bodoni-Book, Bodoni;}.cls-1,.cls-2{fill:#fff;}</style></defs><title>Artboard 1</title><text class="cls-1" transform="translate(19.77 93.04)">HOME<tspan x="-4.78" y="21.59">DECOR</tspan></text><path class="cls-2" d="M49.59,69.19,5.22,24.83,28.05,2H71.12L94,24.83ZM11.41,24.83,49.59,63,87.77,24.83,69.31,6.38H29.86Z"/><path class="cls-2" d="M56.58,27.78v1.39H51.66V50.39h4.92v1.4H42.27v-1.4h4.67V29.17H42.27V27.78h4.67v-3c0-10.37,4.3-14.74,10.12-14.74,2.37,0,5.09,1.09,5.09,3.94a2.19,2.19,0,0,1-2.24,2c-1.64,0-2.49-1.16-2.49-2.79,0-.67.49-.73.49-1.52,0-.3-1-.36-1.46-.36-2.91,0-4.79,3.51-4.79,9.58v6.85Z"/><path class="cls-2" d="M66.9,28.38a2.19,2.19,0,1,1-2.19-2.19,2.2,2.2,0,0,1,2.19,2.19"/></svg>