<svg xmlns="http://www.w3.org/2000/svg" width="36" height="36"><path d="M36.013 8.125C36.013 6.1 36 0 36 0s-5.661-.013-8.126-.013H8.126C5.877-.013 0 0 0 0s-.013 5.887-.013 8.126v19.748C-.013 30.286 0 36 0 36s6.05.012 8.126.012h19.748C30.245 36.012 36 36 36 36s.013-6.009.013-8.126V8.125zm-7.152.748a1.734 1.734 0 1 1 1.228-.508 1.744 1.744 0 0 1-1.228.508zm-3.037 14.781a9.575 9.575 0 0 1-6.326 3.791 9.914 9.914 0 0 1-1.433.106 9.638 9.638 0 1 1 7.759-3.897zm-1.642-6.644a6.163 6.163 0 1 0-5.193 7 6.127 6.127 0 0 0 5.193-7z" fill="#3e3e3e" fill-rule="evenodd"/></svg>