<?xml version="1.0" encoding="utf-8"?>
<!-- Generator: Adobe Illustrator 24.0.1, SVG Export Plug-In . SVG Version: 6.00 Build 0)  -->
<svg version="1.1" id="Layer_1" xmlns="http://www.w3.org/2000/svg" xmlns:xlink="http://www.w3.org/1999/xlink" x="0px" y="0px"
	 viewBox="0 0 36 36" style="enable-background:new 0 0 36 36;" xml:space="preserve">
<style type="text/css">
	.st0{fill:#3E3E3E;}
</style>
<title>Asset 1</title>
<g id="Layer_2_1_">
	<g id="Layer_1-2">
		<path class="st0" d="M0,0v36h36V0H0z M11.4,29.5H6.6V13.9h4.8V29.5z M8.9,11.7c-1.6,0-2.8-1.3-2.8-2.8s1.3-2.8,2.8-2.8
			s2.8,1.3,2.8,2.8l0,0C11.7,10.4,10.5,11.7,8.9,11.7z M29.5,29.5h-4.8v-7.6c0-1.8,0-4.1-2.5-4.1s-2.9,2-2.9,4v7.7h-4.8V13.9H19v2.1
			h0.1c0.9-1.6,2.7-2.6,4.6-2.5c4.9,0,5.8,3.2,5.8,7.4L29.5,29.5z"/>
	</g>
</g>
</svg>
